/* XPM */
static char * FolderLink_xpm[] = {
"40 47 64 1",
" 	c None",
".	c #BEFBAAAAAEBA",
"X	c #EFBEDB6C9E79",
"o	c #FFFFCB2BAEBA",
"O	c #BEFB9A698E38",
"+	c #AEBA9A699E79",
"@	c #BEFBBAEAAEBA",
"#	c #DF7DDB6CCF3C",
"$	c #BEFBAAAA8E38",
"%	c #AEBA8A2871C6",
"&	c #71C661855144",
"*	c #AEBA8A286185",
"=	c #8E3861856185",
"-	c #71C641034103",
";	c #514430C230C2",
":	c #30C220812081",
">	c #EFBEEBADCF3C",
",	c #5144410330C2",
"<	c #9E7971C65144",
"1	c #9E798A288E38",
"2	c #30C230C230C2",
"3	c #514451445144",
"4	c #CF3CCB2BBEFB",
"5	c #8E3861855144",
"6	c #6185410330C2",
"7	c #AEBA9A696185",
"8	c #71C6618571C6",
"9	c #CF3CBAEAAEBA",
"0	c #514441034103",
"q	c #618561856185",
"w	c #96588A289658",
"e	c #9E7961855144",
"r	c #AEBABAEAAEBA",
"t	c #514451444103",
"y	c #CF3C82075144",
"u	c #208120812081",
"i	c #000000000000",
"p	c #EFBEDB6CDF7D",
"a	c #AEBAAAAA9E79",
"s	c #28A228A228A2",
"d	c #DF7D618538E3",
"f	c #410330C22081",
"g	c #69A66DB669A6",
"h	c #410320812081",
"j	c #104010400000",
"k	c #104010401040",
"l	c #104010402081",
"z	c #082008200820",
"x	c #208110401040",
"c	c #F7DE49241040",
"v	c #4103410330C2",
"b	c #9E79618571C6",
"n	c #618559655144",
"m	c #30C220811040",
"M	c #30C210401040",
"N	c #71C6410330C2",
"B	c #410341034103",
"V	c #9E799A698E38",
"C	c #8E388A288E38",
"Z	c #492449244924",
"A	c #8E3841034103",
"S	c #DF7DBAEABEFB",
"D	c #30C230C21040",
"F	c #104000001040",
"                               .XoO+    ",
"                             @#X.$%&O   ",
"                           .Xo$O*%O=-   ",
"                         @oX.$%*%%$%;   ",
"                       .Xo$.*%*%%%$$:   ",
"                     @#X.$%*=*%%O$.$:   ",
"                >#$&,=$O*%<=*%%OOO$$:   ",
"               >=1o>.23*=&=*O%O$O$OO:   ",
"               4Xo$.>5655**%O%OOO%7O:   ",
"             @#X.$%*=$:&<<%%%%%%%*%O:   ",
"           .Xo$O*%555.:<*%*%*%***%*%;8  ",
"         @oX.$%*=&=5<9:*%*%*******%70q  ",
"       .Xo$.*%55555=*9:*<*<*<******O50  ",
"     @#X9$%*=&5&5&<=<4:<<<<<<****7O$12w ",
"   .Xo9O*%55---5555=<9:e<=<*<****%OO$-& ",
" roX9$%*=&&t&t5&5&5<54:<e<<<****%O$$$%0=",
"@4>#$*<5&----5&5&yyyui:e<e<*<**%7O$$$%50",
"pai:p=&t&t&t&&&&yyyyys:<=<****%*%O$O<-0t",
"#0iit9t-t-t--&yyyyyyddie<<<******%<0fqg ",
">,iih>0t-t-t-tyyyyyydddi<<<***%*<t2uq   ",
">6j0u#606-6-t-uyyyddydddii<***5-fh6:    ",
"p,k&l>0,000t-t&uyyyddddddiuwz-;20&5u    ",
">0j5x#,0606-t--isdddddddcczici6-55*h    ",
">,x&x>0,0,0t-t&&sidddcccccccci5&***:    ",
">6x=x#;;,6606--5&uiddcccccccci<****h    ",
"p,l=x>;v;,0,0t--5&uiccccccccci*<*<*:    ",
">0ubx#;;;;,6606----siccccccccz<e<**h    ",
">,l1x9-,;v;,0,0t&2:ngiccccccci<<***:    ",
">6m1uO<;,;;;,6,;mMf6iiccccccci<***NhBq  ",
"p,:V:*%,;v;,;2:u2,06icccccccci*<50iuBqq ",
">0:O:5%;;;f;mlf;60&5ziiiiiiiiz50iiuBBqCC",
">,:ah2O,;2:uhv0t5&5&5$:5e<ZZZ,iiuBBBqqC ",
">6h+mh50x:f;,6-A-A-55O:e5e-0iiuBBBqqqCC ",
"p,:@huluh2;,----&&5&5$:<52iiuBBBqqqCC   ",
">0m.;;f;;;6------5&55%:6iiuBBBqqqCC     ",
">,:40,;v0t0t-t--&&5&&7iiuBBBqqqCC       ",
">6uS60606-6-6-----6hDAiBBBqqqCC         ",
"p,l40,0,000t---t0:ii2i2BqqqCC           ",
">0x466,06-6---6hiiuBBBqqqCC             ",
">,k#;,060t-60:iiuBBBqqqCC               ",
">6j#,66-606hiiuBBBqqqCC                 ",
"p,F>000,0:iiuBBBqqqCC                   ",
"+0i#6-,hiiuBBBqqqCC                     ",
";uia;:iiuBBBqqqCC                       ",
" ;;iiiuBBBqqqCC                         ",
" qBBBqBqqqqCC                           ",
"   qqqCqCCC                             "};
