/* XPM */
static char * FilesLink_xpm[] = {
"48 48 36 1",
" 	c None",
".	c #FFFFFBEEFFFF",
"X	c #000000000000",
"o	c #F7DEEFBEEFBE",
"O	c #514451445144",
"+	c #A6999E799E79",
"@	c #38E341034103",
"#	c #965892489658",
"$	c #69A66DB669A6",
"%	c #71C679E779E7",
"&	c #79E782078E38",
"*	c #79E7820779E7",
"=	c #61855D755144",
"-	c #71C67DF771C6",
";	c #79E78A288617",
":	c #CF3C82075144",
">	c #208120812081",
",	c #86178A288E38",
"<	c #28A22CB228A2",
"1	c #DF7D618538E3",
"2	c #79E779E78617",
"3	c #965896589658",
"4	c #FFFFFBEEEFBE",
"5	c #8E388A289658",
"6	c #08200C300820",
"7	c #F7DE49241040",
"8	c #965892488E38",
"9	c #8E3892489658",
"0	c #492449244924",
"q	c #49244D344924",
"w	c #861782078617",
"e	c #8E3886178617",
"r	c #8E3882078617",
"t	c #861775D671C6",
"y	c #410345144924",
"u	c #861779E78617",
"                                                ",
"                                                ",
"                                                ",
"   .........................X                   ",
"   .........................X                   ",
"   .........................X                   ",
"   .o.XXOOXXO+OOXX++XO......X@..............X   ",
"   .........................X@..............XO  ",
"   ...X+XOXXOXOOXXOXXXOO....X#.           ..XO  ",
"   .........................X$..........X...XO  ",
"   ...XOOXXXOXXOX+XOOXXO....X$..........X%..XO  ",
"   .........................X$..........X%..XO  ",
"   ...XXXX+XOOXXOX+XOXO+....XX++XO......X&..XO  ",
"   .........................X$..........X%..XO  ",
"   ...XXOXXXXOXXX+XXOXOX....XXOXXXOO....X&..XO  ",
"   .........................X%..........X*..XO  ",
"   ...XXXOOXO==X+XXXXOO+....X=XOOXXO....X&..XO  ",
"   ............=$...........X-..........X;..XO  ",
"   ...X+XOX=::::>X+XOXXX....XX+XOXO+....X,..X=  ",
"   .........:::::<*.........X&..........X;..X=  ",
"   ...XOX=::::::11XXXOX+....X=XXOXOX....X,..XO  ",
"   ......2::::::111X>.......X%..........X,..XO  ",
"   ...XOX+>:::11:111XX3.OX.4XXXXXOO+....X5..XO  ",
"   .......$>:::111111X>56X..X%..........X,..XO  ",
"   ...XXXOXX<1111111776X7X..XX+XOXXX....X5..X=  ",
"   ........5<X11177777777X..X%..........X8.4XO  ",
"   ...XOXXXOX>X1177777777X..XXOXXOX+....X#..XO  ",
"   ..........$>X777777777X..X-..........X#..XO  ",
"   ...XXOOX+X+X<X777777776..X<OX+XO..4.4X#..XO  ",
"   ............=$X7777777X..X%..........X#..XO  ",
"   ...XXXXOX+XO+XX7777777X..X=XOXX+O....X#..XO  ",
"   ............<X77777777X..X,..........X#..XO  ",
"   ...........9X6XXXXXXXX6..X=X+XXX4....X#..XO  ",
"   ..........4.40qqqqqqqq,..X$..........X#..XO  ",
"   ............werwrewrewr..XXXXOXO.....X#..X=  ",
"  OXXXXXXXXXXXXXXXXXXXXXXXXXX-..........X#..Xq  ",
"   <<<<<<<<<>#$%t%XXXX<X=X<=XX+X+XX.....X#..XO  ",
"   y00y0@0000...........................X#..XO  ",
"            w...........................XXXXXO  ",
"            u............4.4............XOOOOO  ",
"             ...........................XO      ",
"              OXXXXXXXXXXXXXXXXXXXXXXXXXXO      ",
"                000qq00q0q0qqOqOqqqOqOOqOO      ",
"                                                ",
"                                                ",
"                                                ",
"                                                ",
"                                                "};
