/* XPM */
static char * FileUnknown_xpm[] = {
"48 48 5 1",
" 	c None",
".	c #514451445144",
"X	c #EFBEEFBEEFBE",
"o	c #000000000000",
"O	c #9E79A2899E79",
"                                                ",
"                                                ",
"   ..........................................   ",
"   .XXXXXXXXXXXXXXXXXXXXXXXXXXXXXXXXXXXXXXXXoo  ",
"   .XXXXXXXXXXXXXXXXXXXXXXXXXXXXXXXXXXXXXXXXooo ",
"   .XXXXXXXXXXXXXXXXXXXXXXXXXXXXXXXXXXXXXXXXooo ",
"   .XXXXXXXXXXXXXXXXXXXXXXXXXXXXXXXXXXXXXXXXooo ",
"   .XXXXXXXXXXXXXXXXXXXXXXXXXXXXXXXXXXXXXXXXooo ",
"   .XXX.oXo...XX.XXXOooooo.XXXX..X....XXXXXXooo ",
"   .XXXXXXXXXXXXXXOoo.OO.oooOXXXXXXXXXXXXXXXooo ",
"   .XXX....o..XXXOo.XXXXXOoooOXXXXXXXXXXXXXXooo ",
"   .XXXXXXXXXXXXX.oXXXXXXX.oooXXXXXXXXXXXXXXooo ",
"   .XXX.....X..XXoo.XX..XXOooo.XX..o......XXooo ",
"   .XXXXXXXXXXXXXoooXXXXXXXooooXXXXXXXXXXXXXooo ",
"   .XXXXXX..o..XXoooXX...XXooooXX..XX.XXXXXXooo ",
"   .XXXXXXXXXXXXX.o.XXXXXXXooooXXXXXXXXXXXXXooo ",
"   .XXX.o..o...oXXXXXX.X.XXooo.XX..X....XXXXooo ",
"   .XXXXXXXXXXXXXXXXXXXXXXOoooXXXXXXXXXXXXXXooo ",
"   .XXX..X...X......o...XX.oo.XXXXXXXXXXXXXXooo ",
"   .XXXXXXXXXXXXXXXXXXXXXXoooXXXXXXXXXXXXXXXooo ",
"   .XXXo......X.XXX..XXXXOooOXX...X.....XXXXooo ",
"   .XXXXXXXXXXXXXXXXXXXXXoo.XXXXXXXXXXXXXXXXooo ",
"   .XXXo.X...o.Xo.....XXOooXX........XXXXXXXooo ",
"   .XXXXXXXXXXXXXXXXXXXXooOXXXXXXXXXXXXXXXXXooo ",
"   .XXX...o..........XXXooXX.o..X..oX..o..XXooo ",
"   .XXXXXXXXXXXXXXXXXXXOoOXXXXXXXXXXXXXXXXXXooo ",
"   .XXX...o......XX..XXooXXXXXXXXXXXXXXXXXXXooo ",
"   .XXXXXXXXXXXXXXXXXXXoOXXXXXXXXXXXXXXXXXXXooo ",
"   .XXXXXXXXX..X..o..XXoXXX..o.XXXXXXXXXXXXXooo ",
"   .XXXXXXXXXXXXXXXXXXXXXXXXXXXXXXXXXXXXXXXXooo ",
"   .XXX..o....o..X..XXXXXXX..o....XX...XXXXXooo ",
"   .XXXXXXXXXXXXXXXXXXXXXXXXXXXXXXXXXXXXXXXXooo ",
"   .XXXoo..X......oXXOoooOXXXXXXXXXXXXXXXXXXooo ",
"   .XXXXXXXXXXXXXXXXXoooooXXXXXXXXXXXXXXXXXXooo ",
"   .XXX...X.o...X..XXoooooXXXXXXXXXXXXXXXXXXooo ",
"   .XXXXXXXXXXXXXXXXXoooooXXXXXXXXXXXXXXXXXXooo ",
"   .XXXXXXXXX..o.X.XXOoooOXX...X.o.....XXXXXooo ",
"   .XXXXXXXXXXXXXXXXXXXXXXXXXXXXXXXXXXXXXXXXooo ",
"   .XXXoX..o...o....XXXXXXX..X...X...o...XXXooo ",
"   .XXXXXXXXXXXXXXXXXXXXXXXXXXXXXXXXXXXXXXXXooo ",
"   .XXXXXXXXXXXXXXXXXXXXXXXXXXXXXXXXXXXXXXXXooo ",
"   .XXXXXXXXXXXXXXXXXXXXXXXXXXXXXXXXXXXXXXXXooo ",
"   .XXXXXXXXXXXXXXXXXXXXXXXXXXXXXXXXXXXXXXXXooo ",
"   .ooooooooooooooooooooooooooooooooooooooooooo ",
"    ooooooooooooooooooooooooooooooooooooooooooo ",
"     oooooooooooooooooooooooooooooooooooooooooo ",
"                                                ",
"                                                "};
