/* XPM */
static char * File_xpm[] = {
"48 48 20 1",
" 	c None",
".	c #514451445144",
"X	c #EFBEEFBEEFBE",
"o	c #000000000000",
"O	c #5144104071C6",
"+	c #861710409E79",
"@	c #71C610408617",
"#	c #514410406185",
"$	c #5144000071C6",
"%	c #410310406185",
"&	c #514400006185",
"*	c #410310405144",
"=	c #410300006185",
"-	c #514400005144",
";	c #30C210404103",
":	c #30C2104030C2",
">	c #30C200004103",
",	c #2081000030C2",
"<	c #208100002081",
"1	c #104000001040",
"                                                ",
"                                                ",
"   ..........................................   ",
"   .XXXXXXXXXXXXXXXXXXXXXXXXXXXXXXXXXXXXXXXXoo  ",
"   .XXXXXXXXXXXXXXXXXXXXXXXXXXXXXXXXXXXXXXXXooo ",
"   .XXXXXXXXXXXXXXXXXXXXXXXXXXXXXXXXXXXXXXXXooo ",
"   .XXXXXXXXXXXXXXXXXXXXXXXXXXXXXXXXXXXXXXXXooo ",
"   .XXXXXXXXXXXXXXXXXXXXXXXXXXXXXXXXXXXXXXXXooo ",
"   .XXXOOXOOOOXXOOOOOXOOOOOXOOOOOXOOOOXXXXXXooo ",
"   .XXXXXXXXXXXXXXXXXXXXXXXXXXXXXXXXXXXXXXXXooo ",
"   .XXXOOOOOOOXOOXOOOOOOOOOOXXXXXXXXXXXXXXXXooo ",
"   .XXXXXXXXXXXXXXXXXXXXXXXXXXXXXXXXXXXXXXXXooo ",
"   .XXXOOOOOXOOOOOOOOOOOXOOOOOOOOOOOOOOOOOXXooo ",
"   .XXXXXXXXXXXXXXXXXXXXXXXXXXXXXXXXXXXXXXXXooo ",
"   .XXXXXXOOOOOOOOOOXOOOOOOOOOXOOOOXXOXXXXXXooo ",
"   .XXXXXXXXXXXXXXXXXXXXXXXXXXXXXXXXXXXXXXXXooo ",
"   .XXXOOOOOOOOOOOOOOOOXOOOOOOOOOOOXOOOOXXXXooo ",
"   .XXXXXXXXXXXXXXXXXXXXXXXXXXXXXXXXXXXXXXXXooo ",
"   .XXXOOXOOOXOOOOOOOOOO+XOOOOXXXXXXXXXXXXXXooo ",
"   .XXXXXXXXXXXXXXXXXXXXXXXXXXXXXXXXXXXXXXXXooo ",
"   .XXXOOOOOO@XOXXXOOXXOOOOOOOOOOOXOOOOOXXXXooo ",
"   .XXXXXXXXXXXXXXXXXXXXXXXXXXXXXXXXXXXXXXXXooo ",
"   .XXXOOXOOOOOXOOOOOXOOOOOOOOOOOOOOOXXXXXXXooo ",
"   .XXXXXXXXXXXXXXXXXXXXXXXXXXXXXXXXXXXXXXXXooo ",
"   .XXXOOOOOOOOOOOOOOOOOOOXOOOOOXOOOXOOOOOXXooo ",
"   .XXXXXXXXXXXXXXXXXXXXXXXXXXXXXXXXXXXXXXXXooo ",
"   .XXX#$%&#$%&#$XX#$XXXXXXXXXXXXXXXXXXXXXXXooo ",
"   .XXXXXXXXXXXXXXXXXXXXXXXXXXXXXXXXXXXXXXXXooo ",
"   .XXXXXXXXX*=X-*=*-*=*-X=*-*=XXXXXXXXXXXXXooo ",
"   .XXXXXXXXXXXXXXXXXXXXXXXXXXXXXXXXXXXXXXXXooo ",
"   .XXXOOOOOOOOOOXOOOOOOOOOOOOOOO;XXOOOXXXXXooo ",
"   .XXXXXXXXXXXXXXXXXXXXXXXXXXXXXXXXXXXXXXXXooo ",
"   .XXX:>:>X>:>:>:>XXXOOOXXXXXXXXXXXXXXXXXXXooo ",
"   .XXXXXXXXXXXXXXXXXXXXXXXXXXXXXXXXXXXXXXXXooo ",
"   .XXXOOOXOOOOOXOOOOOOX,<XXXXXXXXXXXXXXXXXXooo ",
"   .XXXXXXXXXXXXXXXXXXXXXXXXXXXXXXXXXXXXXXXXooo ",
"   .XXXXXXXXXOOOOXOOOOOOXOOOOOOXOOOOOO<XXXXXooo ",
"   .XXXXXXXXXXXXXXXXXXXXXXXXXXXXXXXXXXXXXXXXooo ",
"   .XXX1XOOOOOOOOOOOOOOOOOX11X111XOOOOOOOXXXooo ",
"   .XXXXXXXXXXXXXXXXXXXXXXXXXXXXXXXXXXXXXXXXooo ",
"   .XXXXXXXXXXXXXXXXXXXXXXXXXXXXXXXXXXXXXXXXooo ",
"   .XXXXXXXXXXXXXXXXXXXXXXXXXXXXXXXXXXXXXXXXooo ",
"   .XXXXXXXXXXXXXXXXXXXXXXXXXXXXXXXXXXXXXXXXooo ",
"   .ooooooooooooooooooooooooooooooooooooooooooo ",
"    ooooooooooooooooooooooooooooooooooooooooooo ",
"     oooooooooooooooooooooooooooooooooooooooooo ",
"                                                ",
"                                                "};
